<mxfile host="app.diagrams.net" agent="Mozilla/5.0 (Macintosh; Intel Mac OS X 10_15_7) AppleWebKit/537.36 (KHTML, like Gecko) Chrome/138.0.0.0 Safari/537.36" version="28.0.9">
  <diagram name="Page-1" id="PhOJuVu7uLW_zdOe8OdX">
    <mxGraphModel dx="1451" dy="929" grid="1" gridSize="10" guides="1" tooltips="1" connect="1" arrows="1" fold="1" page="1" pageScale="1" pageWidth="850" pageHeight="1100" background="none" math="0" shadow="0">
      <root>
        <mxCell id="0" />
        <mxCell id="1" parent="0" />
        <mxCell id="08zZ4tKS8RYdHdgfWGQo-10" style="edgeStyle=orthogonalEdgeStyle;rounded=1;orthogonalLoop=1;jettySize=auto;html=1;exitX=0.5;exitY=1;exitDx=0;exitDy=0;entryX=0.5;entryY=0;entryDx=0;entryDy=0;labelBackgroundColor=none;strokeColor=#0B4D6A;fontColor=default;fontSize=14;" edge="1" parent="1" source="08zZ4tKS8RYdHdgfWGQo-2" target="08zZ4tKS8RYdHdgfWGQo-7">
          <mxGeometry relative="1" as="geometry" />
        </mxCell>
        <mxCell id="08zZ4tKS8RYdHdgfWGQo-16" style="edgeStyle=orthogonalEdgeStyle;rounded=1;orthogonalLoop=1;jettySize=auto;html=1;exitX=1;exitY=0.75;exitDx=0;exitDy=0;entryX=0;entryY=0.25;entryDx=0;entryDy=0;labelBackgroundColor=none;strokeColor=#0B4D6A;fontColor=default;fontSize=14;" edge="1" parent="1" source="08zZ4tKS8RYdHdgfWGQo-2" target="08zZ4tKS8RYdHdgfWGQo-9">
          <mxGeometry relative="1" as="geometry" />
        </mxCell>
        <mxCell id="08zZ4tKS8RYdHdgfWGQo-17" style="edgeStyle=orthogonalEdgeStyle;rounded=1;orthogonalLoop=1;jettySize=auto;html=1;exitX=0.75;exitY=0;exitDx=0;exitDy=0;labelBackgroundColor=none;strokeColor=#0B4D6A;fontColor=default;fontSize=14;" edge="1" parent="1" source="08zZ4tKS8RYdHdgfWGQo-2" target="08zZ4tKS8RYdHdgfWGQo-8">
          <mxGeometry relative="1" as="geometry" />
        </mxCell>
        <mxCell id="08zZ4tKS8RYdHdgfWGQo-2" value="Central Controller" style="rounded=1;whiteSpace=wrap;html=1;labelBackgroundColor=none;fillColor=#1ba1e2;strokeColor=#006EAF;fontColor=#ffffff;fontSize=14;" vertex="1" parent="1">
          <mxGeometry x="353" y="420" width="200" height="60" as="geometry" />
        </mxCell>
        <mxCell id="08zZ4tKS8RYdHdgfWGQo-14" style="edgeStyle=orthogonalEdgeStyle;rounded=1;orthogonalLoop=1;jettySize=auto;html=1;exitX=1;exitY=0.5;exitDx=0;exitDy=0;entryX=0.5;entryY=0;entryDx=0;entryDy=0;labelBackgroundColor=none;strokeColor=#0B4D6A;fontColor=default;fontSize=14;" edge="1" parent="1" source="08zZ4tKS8RYdHdgfWGQo-3" target="08zZ4tKS8RYdHdgfWGQo-2">
          <mxGeometry relative="1" as="geometry" />
        </mxCell>
        <mxCell id="08zZ4tKS8RYdHdgfWGQo-3" value="Real Time Clock&amp;nbsp;" style="rounded=1;whiteSpace=wrap;html=1;labelBackgroundColor=none;fillColor=#6a00ff;strokeColor=#3700CC;fontColor=#ffffff;fontSize=14;" vertex="1" parent="1">
          <mxGeometry x="273" y="300" width="155" height="40" as="geometry" />
        </mxCell>
        <mxCell id="08zZ4tKS8RYdHdgfWGQo-12" style="edgeStyle=orthogonalEdgeStyle;rounded=1;orthogonalLoop=1;jettySize=auto;html=1;entryX=0;entryY=0.75;entryDx=0;entryDy=0;labelBackgroundColor=none;strokeColor=#0B4D6A;fontColor=default;fontSize=14;" edge="1" parent="1" source="08zZ4tKS8RYdHdgfWGQo-4" target="08zZ4tKS8RYdHdgfWGQo-2">
          <mxGeometry relative="1" as="geometry" />
        </mxCell>
        <mxCell id="08zZ4tKS8RYdHdgfWGQo-4" value="Bowl Weight Sensor" style="rounded=1;whiteSpace=wrap;html=1;labelBackgroundColor=none;fillColor=#fad7ac;strokeColor=#b46504;fontSize=14;" vertex="1" parent="1">
          <mxGeometry x="138" y="480" width="140" height="40" as="geometry" />
        </mxCell>
        <mxCell id="08zZ4tKS8RYdHdgfWGQo-18" style="edgeStyle=orthogonalEdgeStyle;rounded=1;orthogonalLoop=1;jettySize=auto;html=1;exitX=1;exitY=0.5;exitDx=0;exitDy=0;entryX=0;entryY=0.25;entryDx=0;entryDy=0;strokeColor=#0B4D6A;fontSize=14;labelBackgroundColor=none;fontColor=default;" edge="1" parent="1" source="08zZ4tKS8RYdHdgfWGQo-5" target="08zZ4tKS8RYdHdgfWGQo-2">
          <mxGeometry relative="1" as="geometry" />
        </mxCell>
        <mxCell id="08zZ4tKS8RYdHdgfWGQo-5" value="Food Bin Sensor" style="rounded=1;whiteSpace=wrap;html=1;labelBackgroundColor=none;fillColor=#a0522d;strokeColor=#6D1F00;fontColor=#ffffff;fontSize=14;" vertex="1" parent="1">
          <mxGeometry x="153" y="380" width="120" height="40" as="geometry" />
        </mxCell>
        <mxCell id="08zZ4tKS8RYdHdgfWGQo-11" style="edgeStyle=orthogonalEdgeStyle;rounded=1;orthogonalLoop=1;jettySize=auto;html=1;exitX=1;exitY=0.5;exitDx=0;exitDy=0;entryX=0.5;entryY=0;entryDx=0;entryDy=0;labelBackgroundColor=none;strokeColor=#0B4D6A;fontColor=default;fontSize=14;" edge="1" parent="1" source="08zZ4tKS8RYdHdgfWGQo-6" target="08zZ4tKS8RYdHdgfWGQo-7">
          <mxGeometry relative="1" as="geometry" />
        </mxCell>
        <mxCell id="08zZ4tKS8RYdHdgfWGQo-6" value="Manual Override" style="rounded=1;whiteSpace=wrap;html=1;labelBackgroundColor=none;fillColor=#60a917;strokeColor=#2D7600;fontSize=14;fontColor=#ffffff;" vertex="1" parent="1">
          <mxGeometry x="173" y="570" width="130" height="40" as="geometry" />
        </mxCell>
        <mxCell id="08zZ4tKS8RYdHdgfWGQo-7" value="Power" style="rounded=1;whiteSpace=wrap;html=1;labelBackgroundColor=none;fillColor=#e3c800;strokeColor=#B09500;fontColor=#000000;fontSize=14;" vertex="1" parent="1">
          <mxGeometry x="393" y="640" width="120" height="40" as="geometry" />
        </mxCell>
        <mxCell id="08zZ4tKS8RYdHdgfWGQo-8" value="Servo Motor" style="rounded=1;whiteSpace=wrap;html=1;labelBackgroundColor=none;fillColor=#f8cecc;strokeColor=#b85450;fontSize=14;" vertex="1" parent="1">
          <mxGeometry x="563" y="340" width="120" height="40" as="geometry" />
        </mxCell>
        <mxCell id="08zZ4tKS8RYdHdgfWGQo-9" value="Alert Module" style="rounded=1;whiteSpace=wrap;html=1;labelBackgroundColor=none;fillColor=#a0522d;strokeColor=#6D1F00;fontColor=#ffffff;fontSize=14;" vertex="1" parent="1">
          <mxGeometry x="593" y="530" width="120" height="50" as="geometry" />
        </mxCell>
      </root>
    </mxGraphModel>
  </diagram>
</mxfile>
